<svg xmlns="http://www.w3.org/2000/svg" viewBox="0 0 128 128" id="mad"><path d="M64 90a13.57853 13.57853 0 0 0-12.15283 8H76.15283A13.57853 13.57853 0 0 0 64 90zM38.81445 52.7793a4.197 4.197 0 0 0 5.06281-2.0401l-7.72864-2.788a3.915 3.915 0 0 0 .26251 2.74707A4.0952 4.0952 0 0 0 38.81445 52.7793z" fill="#000000"></path><path d="M47.64783 52.09937a8.18868 8.18868 0 0 1-10.099 4.47485 8.072 8.072 0 0 1-4.72607-4.1084 7.8929 7.8929 0 0 1-.454-5.87817l-4.62317-1.66772a12.53713 12.53713 0 0 0 .67871 9.52051 13.46374 13.46374 0 0 0 8.00732 6.84863 14.00634 14.00634 0 0 0 17.03174-7.0918zM89.18555 52.7793a4.0952 4.0952 0 0 0 2.40332-2.08105 3.915 3.915 0 0 0 .26251-2.74707l-7.72876 2.78809A4.19522 4.19522 0 0 0 89.18555 52.7793z" fill="#000000"></path><path d="M95.63123,46.58765a7.8929,7.8929,0,0,1-.454,5.87817,8.072,8.072,0,0,1-4.72607,4.1084,8.18868,8.18868,0,0,1-10.099-4.47485l-5.81555,2.0979a14.00728,14.00728,0,0,0,17.03174,7.0918,13.46374,13.46374,0,0,0,8.00732-6.84863,12.53713,12.53713,0,0,0,.67871-9.52051Z" fill="#000000"></path><path d="M64,4C28.65,4,0,30.86,0,64s28.65,60,64,60,64-26.86,64-60S99.35,4,64,4Zm6.06,6.51.541-2.16382c1.34436.138,2.67236.3252,3.98877.545L73.94,11.49A2.00611,2.00611,0,0,1,72,13a1.97342,1.97342,0,0,1-.48-.06A1.99674,1.99674,0,0,1,70.06,10.51ZM68,76a2,2,0,1,1-2,2A2.00587,2.00587,0,0,1,68,76ZM62,8.04736C62.66547,8.02686,63.32928,8,64,8s1.33453.02686,2,.04736V14a2,2,0,0,1-4,0ZM60,76a2,2,0,1,1-2,2A2.00587,2.00587,0,0,1,60,76ZM57.399,8.34619,57.94,10.51a1.99674,1.99674,0,0,1-1.46,2.43A1.97342,1.97342,0,0,1,56,13a2.00611,2.00611,0,0,1-1.94-1.51l-.64972-2.59882C54.72668,8.67139,56.05469,8.48419,57.399,8.34619ZM35.19,65.09a17.41992,17.41992,0,0,1-10.35-8.88,16.549,16.549,0,0,1-.86-12.65l-4.66-1.68a1.9992,1.9992,0,0,1,1.36-3.76l36,12.99a1.985,1.985,0,0,1,1.26,2.36l-.19.74a1.21791,1.21791,0,0,1-.05.18005A17.7888,17.7888,0,0,1,40.86,66,18.06841,18.06841,0,0,1,35.19,65.09ZM76,111a2,2,0,0,1-4,0v-1a2,2,0,0,1,4,0Zm4.58-9.78A1.98476,1.98476,0,0,1,79,102H76v2a2,2,0,0,1-4,0v-2H49a2.00115,2.00115,0,0,1-1.93-2.51A17.77455,17.77455,0,0,1,64,86,17.77455,17.77455,0,0,1,80.93,99.49,1.98755,1.98755,0,0,1,80.58,101.22Zm28.1-59.34-4.66,1.68a16.549,16.549,0,0,1-.86,12.65,17.41992,17.41992,0,0,1-10.35,8.88,18.35945,18.35945,0,0,1-5.67.91A17.7888,17.7888,0,0,1,70.3,54.39a1.21791,1.21791,0,0,1-.05-.18005l-.19-.74a1.985,1.985,0,0,1,1.26-2.36l36-12.99a1.9992,1.9992,0,1,1,1.36,3.76Z" fill="#000000"></path></svg>